<svg width="25" height="25" viewBox="0 0 25 25" fill="none" xmlns="http://www.w3.org/2000/svg">
<rect width="25" height="25" fill="#E5E5E5"/>
<g filter="url(#filter0_d_0_1)">
<g clip-path="url(#clip0_0_1)">
<rect x="-128" y="-66" width="416" height="629" rx="18" fill="white"/>
<path d="M-128 -48C-128 -57.9411 -119.941 -66 -110 -66H270C279.941 -66 288 -57.9411 288 -48V212H-128V-48Z" fill="white"/>
<g clip-path="url(#clip1_0_1)">
<path d="M54.5778 -4.68325C54.5778 -2.44265 52.3129 -0.368028 48.4071 1.02197C46.8125 1.58212 45.7725 2.31861 45.4489 3.10697C45.4027 3.0966 45.3796 3.0966 45.3334 3.0966H31.4667C31.4205 3.0966 31.3511 3.0966 31.3049 3.10697C30.9814 2.28749 30.0338 1.57175 28.6702 1.11533C23.632 -0.596237 21.2747 -3.39698 22.5689 -6.21848C23.84 -8.96736 28.8089 -11.208 34.9334 -11.7785C39.8098 -12.2453 44.8018 -11.7059 48.592 -10.3262C52.4054 -8.93624 54.5778 -6.88236 54.5778 -4.68325V-4.68325Z" fill="#FFC107" fill-opacity="0.05"/>
<path d="M20.0151 4.34657C19.5714 4.34657 19.1277 4.27085 18.7902 4.11836C18.1131 3.81443 18.1131 3.32171 18.7902 3.01777L21.9888 1.58214C22.666 1.2782 23.7637 1.2782 24.4409 1.58214C25.1181 1.88607 25.1181 2.37879 24.4409 2.68272L21.2423 4.11836C20.9026 4.27085 20.4589 4.34657 20.0151 4.34657V4.34657Z" fill="black" fill-opacity="0.02"/>
<path d="M41.2889 7.76451H35.5111C33.5629 7.76451 31.4667 7.10063 31.4667 5.64424V3.81442C31.4667 2.71383 30.4221 1.70349 28.6726 1.11222C23.6228 -0.594162 21.2862 -3.40113 22.5735 -6.21329C23.8331 -8.96839 28.7997 -11.2059 34.931 -11.7816C39.8075 -12.2422 44.7949 -11.709 48.599 -10.321C52.3984 -8.9352 54.5778 -6.88028 54.5778 -4.68325C54.5778 -2.44473 52.3245 -0.366991 48.3956 1.0199C46.4496 1.7066 45.3334 2.663 45.3334 3.64326V5.94921C45.3334 6.95022 43.5191 7.76451 41.2889 7.76451V7.76451ZM38.3677 -10.3864C37.4617 -10.3864 36.5488 -10.3439 35.6359 -10.2588C30.8381 -9.80862 26.9531 -8.05763 25.9662 -5.90106C24.9517 -3.68432 26.7867 -1.47277 30.7549 -0.13152C33.3687 0.752271 34.931 2.22733 34.931 3.81442V5.64424C34.931 5.73863 34.9588 6.20854 35.5088 6.20854H41.2866C41.6055 6.20854 41.8644 6.09236 41.8644 5.94921V3.64326C41.8644 2.18169 43.4637 0.780279 46.2509 -0.204131C49.3408 -1.29331 51.1111 -2.92604 51.1111 -4.68325C51.1111 -6.40934 49.3963 -8.02444 46.4103 -9.11362C44.127 -9.94554 41.2958 -10.3864 38.3677 -10.3864V-10.3864Z" fill="black" fill-opacity="0.02"/>
</g>
<rect x="-128" y="-67" width="416" height="278" fill="url(#paint0_linear_0_1)"/>
<g clip-path="url(#clip2_0_1)">
<path d="M3.37579 6.35206C4.02856 5.89581 5.01259 5.98331 5.5987 6.46734L4.92648 5.49026C4.38551 4.71873 4.57926 3.88401 5.35148 3.34234C6.1237 2.80276 8.3119 4.25345 8.3119 4.25345C7.76606 3.47429 7.86815 2.48679 8.64731 1.94026C9.02192 1.67851 9.48511 1.57617 9.93512 1.65573C10.3851 1.73529 10.7852 1.99024 11.0473 2.36456L18.2834 12.5868L17.3612 21.5278L9.66468 18.7208L2.95148 8.76734C2.82057 8.58095 2.7277 8.37059 2.67818 8.14827C2.62865 7.92596 2.62344 7.69606 2.66285 7.47173C2.70226 7.2474 2.78551 7.03304 2.90785 6.84092C3.03018 6.64879 3.18919 6.48267 3.37579 6.35206V6.35206Z" fill="#E0AA94"/>
<path d="M1.95406 11.9823L1.95394 11.9821L1.95274 11.9803L1.94735 11.972C1.94251 11.9644 1.93529 11.9528 1.92634 11.9376C1.90843 11.907 1.88371 11.862 1.85733 11.8053C1.80435 11.6917 1.74576 11.5337 1.72092 11.3541C1.69613 11.1749 1.70515 10.9763 1.7848 10.778C1.86418 10.5805 2.01633 10.3766 2.28853 10.1901L2.28858 10.1901C2.56043 10.0036 2.80529 9.93529 3.01809 9.93249C3.23164 9.92968 3.42011 9.99281 3.57826 10.0804C3.73679 10.1683 3.86299 10.2798 3.94991 10.3701C3.99321 10.415 4.02631 10.4543 4.04836 10.482C4.05938 10.4958 4.0676 10.5067 4.07294 10.514L4.07874 10.522L4.07998 10.5237L4.0801 10.5239L4.08015 10.524L4.08019 10.524L7.72663 15.842L7.81476 15.9705L7.89488 15.8368C8.01894 15.6298 8.15451 15.4258 8.3057 15.2247L8.34886 15.1673L8.30824 15.108L3.24717 7.72823L3.24713 7.72816L3.24712 7.72816L3.247 7.72798L3.24581 7.72619L3.24042 7.71789C3.23558 7.7103 3.22837 7.6987 3.21943 7.68344C3.20154 7.6529 3.17685 7.60788 3.15049 7.55129C3.09756 7.43769 3.03904 7.27981 3.01424 7.10029C2.98949 6.9212 2.99853 6.72265 3.07815 6.52444C3.1575 6.32693 3.30958 6.12312 3.58161 5.93665L3.58163 5.93663C3.85349 5.75018 4.09835 5.68182 4.31115 5.67902C4.52469 5.6762 4.71317 5.73934 4.87131 5.82697C5.02984 5.9148 5.15605 6.02628 5.24297 6.11658C5.28626 6.16156 5.31936 6.20082 5.34142 6.22851C5.35243 6.24234 5.36066 6.25325 5.36599 6.2605L5.3718 6.26851L5.37304 6.27028L5.37316 6.27044L5.37324 6.27057L10.1336 13.2128L10.195 13.3024L10.2793 13.2337C10.4559 13.0897 10.6362 12.9453 10.8218 12.8038L10.8974 12.7462L10.8437 12.6678L5.32495 4.61851L5.32491 4.61845L5.3249 4.61844L5.32478 4.61826L5.32359 4.61647L5.3182 4.60817C5.31336 4.60058 5.30615 4.58898 5.29721 4.57372C5.27932 4.54318 5.25462 4.49816 5.22826 4.44157C5.17534 4.32796 5.11682 4.17009 5.09201 3.99057C5.06727 3.81148 5.0763 3.61292 5.15593 3.41472C5.23528 3.21721 5.38736 3.01339 5.65939 2.82693L5.65941 2.82691C5.93127 2.64045 6.17613 2.5721 6.38892 2.56929C6.60247 2.56648 6.79094 2.62962 6.94909 2.71724C7.10762 2.80508 7.23383 2.91656 7.32075 3.00686C7.36404 3.05184 7.39714 3.0911 7.41919 3.11879C7.43021 3.13262 7.43844 3.14353 7.44377 3.15078L7.44957 3.15879L7.45082 3.16055L7.45093 3.16072L7.45102 3.16084L12.9697 11.2086L13.0234 11.287L13.1044 11.2373C13.2497 11.1483 13.393 11.0684 13.5384 10.9873C13.594 10.9563 13.6498 10.9252 13.7062 10.8933L13.8012 10.8396L13.7395 10.7497L8.5812 3.22753L8.58116 3.22747L8.58115 3.22747L8.58103 3.22729L8.57983 3.22549L8.57445 3.21719C8.56961 3.20961 8.5624 3.198 8.55346 3.18275C8.53557 3.1522 8.51087 3.10718 8.4845 3.05059C8.43156 2.93698 8.37302 2.7791 8.34817 2.59957C8.32339 2.42048 8.33237 2.22192 8.4119 2.02371C8.49116 1.8262 8.64311 1.6224 8.91497 1.43594C9.18682 1.24948 9.43168 1.18113 9.64448 1.17832C9.85803 1.17551 10.0465 1.23865 10.2046 1.32627C10.3632 1.41411 10.4894 1.52559 10.5763 1.61589C10.6196 1.66087 10.6527 1.70012 10.6748 1.72782C10.6858 1.74165 10.694 1.75256 10.6993 1.7598L10.7051 1.76782L10.7064 1.76958L10.7065 1.76975L10.7066 1.76987L16.1606 9.7239L16.1607 9.72391L16.9337 10.8517C13.5238 13.2574 13.2149 17.7074 15.1898 20.5878C15.2978 20.7454 15.4222 20.842 15.5513 20.8939C15.6798 20.9456 15.8064 20.9505 15.9157 20.9354C16.0246 20.9205 16.1182 20.8855 16.1841 20.8548C16.2172 20.8394 16.2439 20.8248 16.2627 20.8139C16.2721 20.8084 16.2795 20.8038 16.2848 20.8004L16.2911 20.7963L16.293 20.795L16.2936 20.7946L16.2939 20.7944L16.294 20.7944C16.294 20.7943 16.2941 20.7943 16.2376 20.7118L16.2941 20.7943L16.3766 20.7378L16.3201 20.6553C15.1548 18.9556 14.7541 17.1575 15.0635 15.4975C15.3729 13.8375 16.3945 12.3047 18.0941 11.1394L18.1486 11.1021L18.1356 11.0374L17.1224 5.96652L17.1227 5.96646L17.1206 5.95899L17.1206 5.95898L17.1206 5.95894L17.1206 5.95886L17.1205 5.95865L17.12 5.95657L17.1175 5.94698C17.1154 5.93825 17.1122 5.92494 17.1086 5.90763C17.1014 5.87296 17.0924 5.8224 17.0855 5.76035C17.0716 5.63576 17.0666 5.46741 17.1003 5.28929C17.134 5.11159 17.2059 4.92622 17.3445 4.7637C17.4826 4.60176 17.6916 4.45706 18.0086 4.36705C18.3258 4.2772 18.5797 4.29064 18.7823 4.35597C18.9857 4.42153 19.1442 4.54159 19.2662 4.67516C19.3884 4.80905 19.4725 4.95501 19.5261 5.06836C19.5528 5.12482 19.5716 5.17259 19.5837 5.20588C19.5897 5.22251 19.594 5.23548 19.5968 5.24405L19.5997 5.2535L19.6003 5.25557L19.6004 5.25577L19.6003 5.2558L19.6018 5.26038L20.772 8.73538C21.2361 10.1139 21.7317 11.4924 22.3885 12.7977C24.2115 16.4203 23.1225 20.9226 19.6852 23.2807C15.9356 25.8516 10.8097 24.8958 8.2381 21.1469C8.2381 21.1469 8.2381 21.1469 8.23809 21.1469L1.95406 11.9823ZM1.95406 11.9823L1.95411 11.9824L1.95406 11.9823Z" fill="#EACCB9" stroke="#2D2D2D" stroke-width="0.2"/>
<path d="M8.33331 22.2514C5.55553 22.2514 2.74858 19.4444 2.74858 16.6667C2.74858 16.2826 2.46733 15.9722 2.08331 15.9722C1.69928 15.9722 1.3597 16.2826 1.3597 16.6667C1.3597 20.8333 4.16664 23.6403 8.33331 23.6403C8.71733 23.6403 9.02775 23.3007 9.02775 22.9167C9.02775 22.5326 8.71733 22.2514 8.33331 22.2514Z" fill="#2D2D2D" fill-opacity="0.5"/>
<path d="M4.86111 23.6111C2.77778 23.6111 1.38889 22.2222 1.38889 20.1389C1.38889 19.9547 1.31572 19.7781 1.18549 19.6479C1.05526 19.5176 0.878623 19.4445 0.694444 19.4445C0.510266 19.4445 0.333632 19.5176 0.203398 19.6479C0.0731645 19.7781 0 19.9547 0 20.1389C0 22.9167 2.08333 25 4.86111 25C5.04529 25 5.22192 24.9268 5.35216 24.7966C5.48239 24.6664 5.55556 24.4897 5.55556 24.3056C5.55556 24.1214 5.48239 23.9448 5.35216 23.8145C5.22192 23.6843 5.04529 23.6111 4.86111 23.6111ZM16.6667 1.3889C16.4825 1.3889 16.3059 1.46207 16.1756 1.5923C16.0454 1.72253 15.9722 1.89917 15.9722 2.08335C15.9722 2.26752 16.0454 2.44416 16.1756 2.57439C16.3059 2.70463 16.4825 2.77779 16.6667 2.77779C19.4444 2.77779 22.2222 5.27015 22.2222 8.33335C22.2222 8.51752 22.2954 8.69416 22.4256 8.82439C22.5559 8.95463 22.7325 9.02779 22.9167 9.02779C23.1008 9.02779 23.2775 8.95463 23.4077 8.82439C23.5379 8.69416 23.6111 8.51752 23.6111 8.33335C23.6111 4.50418 20.8333 1.3889 16.6667 1.3889Z" fill="#2D2D2D" fill-opacity="0.5"/>
<path d="M20.1389 0.0291748C19.7555 0.0291748 19.4444 0.311119 19.4444 0.694453C19.4444 1.07779 19.7555 1.41806 20.1389 1.41806C22.2222 1.41806 23.5819 2.9632 23.5819 4.86112C23.5819 5.24445 23.9215 5.55556 24.3055 5.55556C24.6896 5.55556 24.9708 5.24445 24.9708 4.86112C24.9708 2.19654 22.9166 0.0291748 20.1389 0.0291748Z" fill="#2D2D2D" fill-opacity="0.5"/>
</g>
</g>
</g>
<defs>
<filter id="filter0_d_0_1" x="-178" y="-116" width="516" height="729" filterUnits="userSpaceOnUse" color-interpolation-filters="sRGB">
<feFlood flood-opacity="0" result="BackgroundImageFix"/>
<feColorMatrix in="SourceAlpha" type="matrix" values="0 0 0 0 0 0 0 0 0 0 0 0 0 0 0 0 0 0 127 0" result="hardAlpha"/>
<feOffset/>
<feGaussianBlur stdDeviation="25"/>
<feColorMatrix type="matrix" values="0 0 0 0 0 0 0 0 0 0 0 0 0 0 0 0 0 0 0.08 0"/>
<feBlend mode="normal" in2="BackgroundImageFix" result="effect1_dropShadow_0_1"/>
<feBlend mode="normal" in="SourceGraphic" in2="effect1_dropShadow_0_1" result="shape"/>
</filter>
<linearGradient id="paint0_linear_0_1" x1="-122.5" y1="-59.5" x2="289" y2="352" gradientUnits="userSpaceOnUse">
<stop stop-color="#F5821F"/>
<stop offset="1" stop-color="#FF5C00"/>
</linearGradient>
<clipPath id="clip0_0_1">
<rect x="-128" y="-66" width="416" height="629" rx="18" fill="white"/>
</clipPath>
<clipPath id="clip1_0_1">
<rect width="55.4667" height="24.8955" fill="white" transform="translate(10.6667 -17.131)"/>
</clipPath>
<clipPath id="clip2_0_1">
<rect width="25" height="25" fill="white"/>
</clipPath>
</defs>
</svg>
