<svg width="67" height="67" viewBox="0 0 67 67" fill="none" xmlns="http://www.w3.org/2000/svg">
<path d="M33.5 67C52.0015 67 67 52.0015 67 33.5C67 14.9985 52.0015 0 33.5 0C14.9985 0 0 14.9985 0 33.5C0 52.0015 14.9985 67 33.5 67Z" fill="url(#paint0_linear_1_11)"/>
<path d="M16.8 31.125H18.6V42.375H16.8C16.5635 42.3753 16.3294 42.327 16.1108 42.2329C15.8923 42.1387 15.6938 42.0006 15.5266 41.8265C15.3594 41.6523 15.2268 41.4455 15.1364 41.2179C15.0461 40.9903 14.9997 40.7463 15 40.5V33C14.9997 32.7537 15.0461 32.5097 15.1364 32.2821C15.2268 32.0545 15.3594 31.8477 15.5266 31.6735C15.6938 31.4994 15.8923 31.3613 16.1108 31.2671C16.3294 31.173 16.5635 31.1247 16.8 31.125ZM45.6 28.3125V44.25C45.5991 45.2443 45.2195 46.1975 44.5445 46.9006C43.8696 47.6036 42.9545 47.999 42 48H24C23.0455 47.999 22.1304 47.6036 21.4555 46.9006C20.7805 46.1975 20.4009 45.2443 20.4 44.25V28.3125C20.3998 27.6969 20.5161 27.0872 20.7422 26.5184C20.9682 25.9496 21.2997 25.4328 21.7176 24.9975C22.1355 24.5622 22.6316 24.2169 23.1777 23.9814C23.7237 23.7459 24.309 23.6248 24.9 23.625H31.2V19.875C31.2 19.3777 31.3896 18.9008 31.7272 18.5492C32.0648 18.1975 32.5226 18 33 18C33.4774 18 33.9352 18.1975 34.2728 18.5492C34.6104 18.9008 34.8 19.3777 34.8 19.875V23.625H41.1C41.691 23.6248 42.2762 23.7459 42.8223 23.9814C43.3684 24.2169 43.8645 24.5622 44.2824 24.9975C44.7003 25.4328 45.0318 25.9496 45.2578 26.5184C45.4839 27.0872 45.6002 27.6969 45.6 28.3125ZM29.85 33C29.85 32.5365 29.718 32.0833 29.4708 31.6979C29.2236 31.3125 28.8722 31.0121 28.461 30.8347C28.0499 30.6573 27.5975 30.6109 27.161 30.7013C26.7246 30.7917 26.3237 31.0149 26.009 31.3427C25.6943 31.6705 25.48 32.0881 25.3932 32.5428C25.3064 32.9974 25.351 33.4687 25.5213 33.8969C25.6916 34.3252 25.98 34.6912 26.35 34.9488C26.72 35.2063 27.155 35.3438 27.6 35.3438C27.8955 35.3438 28.1881 35.2832 28.4611 35.1654C28.7341 35.0476 28.9821 34.875 29.191 34.6573C29.4 34.4397 29.5657 34.1813 29.6788 33.8969C29.7918 33.6126 29.85 33.3078 29.85 33ZM29.4 40.5H25.8V42.375H29.4V40.5ZM34.8 40.5H31.2V42.375H34.8V40.5ZM40.65 33C40.65 32.5365 40.518 32.0833 40.2708 31.6979C40.0236 31.3125 39.6722 31.0121 39.261 30.8347C38.8499 30.6573 38.3975 30.6109 37.961 30.7013C37.5246 30.7917 37.1237 31.0149 36.809 31.3427C36.4943 31.6705 36.28 32.0881 36.1932 32.5428C36.1064 32.9974 36.151 33.4687 36.3213 33.8969C36.4916 34.3252 36.78 34.6912 37.15 34.9488C37.52 35.2063 37.955 35.3438 38.4 35.3438C38.6955 35.3438 38.9881 35.2832 39.2611 35.1654C39.5341 35.0476 39.7821 34.875 39.991 34.6573C40.2 34.4397 40.3657 34.1813 40.4788 33.8969C40.5918 33.6126 40.65 33.3078 40.65 33ZM40.2 40.5H36.6V42.375H40.2V40.5ZM51 33V40.5C51.0003 40.7463 50.9539 40.9903 50.8636 41.2179C50.7732 41.4455 50.6406 41.6523 50.4734 41.8265C50.3062 42.0006 50.1077 42.1387 49.8892 42.2329C49.6706 42.327 49.4365 42.3753 49.2 42.375H47.4V31.125H49.2C49.4365 31.1247 49.6706 31.173 49.8892 31.2671C50.1077 31.3613 50.3062 31.4994 50.4734 31.6735C50.6406 31.8477 50.7732 32.0545 50.8636 32.2821C50.9539 32.5097 51.0003 32.7537 51 33Z" fill="white"/>
<defs>
<linearGradient id="paint0_linear_1_11" x1="33.5" y1="0" x2="33.5" y2="67" gradientUnits="userSpaceOnUse">
<stop stop-color="#FF7600"/>
<stop offset="1" stop-color="#FF5C00"/>
</linearGradient>
</defs>
</svg>
